#N canvas 217 165 1655 1001 10;
#X msg 36 17 devices;
#X msg 95 17 open 2;
#X obj 36 48 comport 2 9600;
#X floatatom 45 380 5 0 0 0 - - -;
#X floatatom 115 380 5 0 0 0 - - -;
#X obj 480 194 smooth;
#X obj 384 194 smooth;
#X obj 294 194 smooth;
#X obj 210 194 smooth;
#X obj 45 253 split 0 1;
#X obj 115 253 split 2 3;
#X obj 180 253 split 4 5;
#X obj 252 253 split 6 7;
#X obj 315 253 split 8 9;
#X obj 380 253 split 10 11;
#X obj 456 253 split 12 13;
#X obj 533 253 split 14 15;
#X obj 613 253 split 16 17;
#X floatatom 210 225 5 0 0 0 - - -;
#X floatatom 294 225 5 0 0 0 - - -;
#X floatatom 384 225 5 0 0 0 - - -;
#X floatatom 480 225 5 0 0 0 - - -;
#X floatatom 572 169 5 0 0 0 - - -;
#X floatatom 180 380 5 0 0 0 - - -;
#X floatatom 252 380 5 0 0 0 - - -;
#X floatatom 315 380 5 0 0 0 - - -;
#X floatatom 380 380 5 0 0 0 - - -;
#X floatatom 456 380 5 0 0 0 - - -;
#X floatatom 533 380 5 0 0 0 - - -;
#X floatatom 613 380 5 0 0 0 - - -;
#X text 45 283 FSR1;
#X text 115 283 FSR2;
#X text 180 283 FSR3;
#X text 252 283 TILT;
#X text 315 283 PB1;
#X text 380 283 PB2;
#X text 456 283 PB3;
#X text 533 283 PB4;
#X text 613 283 PB5;
#X text 221 86 MOISTURE1;
#X text 304 86 MOISTURE2;
#X text 394 86 VIBRATION1;
#X text 489 86 VIBRATION2;
#X text 584 86 PHOTORESISTOR;
#X obj 210 66 split 21 60;
#X obj 294 66 split 61 100;
#X obj 384 66 split 101 140;
#X obj 480 66 split 141 180;
#X text 583 100 EGGS;
#X text 584 114 Volume of chick;
#X text 585 129 granulate when;
#X text 585 145 really bright;
#X obj 572 23 split 211 240;
#X floatatom 572 45 5 0 0 0 - - -;
#X obj 572 66 split 181 210;
#N canvas 0 22 450 278 (subpatch) 0;
#X array channel1 154350 float 2;
#X coords 0 1 154350 -1 200 140 1 0 0;
#X restore 1247 144 graph;
#X obj 922 95 soundfile_info;
#X msg 922 73 read \$1;
#X obj 922 49 openpanel;
#X obj 922 27 bng 15 250 50 0 empty empty empty 17 7 0 10 -262144 -1
-1;
#X obj 922 118 unpack f symbol f;
#X floatatom 1021 142 20 0 0 0 - - -;
#X text 1153 139 Sample Length;
#X floatatom 1021 163 10 0 0 0 - - -;
#X text 1152 162 Sample Rate;
#X floatatom 1020 210 10 0 0 0 - - -;
#X obj 1020 187 /;
#X text 1089 209 Sample Length (seconds);
#X obj 929 155 bng 15 250 50 0 empty empty empty 17 7 0 10 -262144
-1 -1;
#X floatatom 1023 269 10 0 0 0 - - -;
#X text 1090 268 Playback Rate;
#X obj 702 97 soundfiler;
#X floatatom 719 126 10 0 0 0 - - -;
#X obj 702 175 expr 44100 / $f1;
#X floatatom 729 274 5 0 0 0 - - -;
#X obj 702 330 phasor~;
#X obj 702 384 *~;
#X obj 914 501 vsl 30 40 0 1 0 0 empty empty empty 0 -9 0 10 -262144
-1 -1 0 1;
#X obj 723 605 *~;
#X obj 723 641 dac~ 1 2;
#X obj 815 404 snapshot~;
#X obj 815 377 metro 50;
#X obj 815 351 tgl 15 0 empty empty empty 17 7 0 10 -262144 -1 -1 1
1;
#X floatatom 797 428 10 0 0 0 - - -;
#X obj 846 451 /;
#X floatatom 839 484 5 0 0 0 - - -;
#X obj 817 282 hsl 128 15 -1 10 0 0 empty empty empty -2 -8 0 10 -262144
-1 -1 1484 1;
#X floatatom 814 308 5 0 0 0 - - -;
#X obj 784 109 bng 15 250 50 0 empty empty empty 17 7 0 10 -262144
-1 -1;
#X floatatom 813 176 5 0 0 0 - - -;
#X obj 819 129 /;
#X obj 814 213 +;
#X floatatom 851 175 5 0 0 0 - - -;
#X floatatom 814 245 5 0 0 0 - - -;
#X obj 820 101 r 1playbackSpeed;
#X obj 879 429 r 1sampleSize;
#X obj 719 150 s 1sampleSize;
#X obj 717 357 r 1sampleSize;
#X obj 844 138 r granuleMove;
#X obj 1023 294 s 1playbackSpeed;
#X obj 725 549 *~;
#X obj 954 599 *~;
#X obj 954 559 osc~ \$1;
#X floatatom 990 581 5 0 0 0 - - -;
#X floatatom 954 530 5 0 0 0 - - -;
#X msg 954 503 0;
#X msg 701 71 read -resize \$1 channel1;
#X msg 1023 234 1;
#X obj 1085 378 print;
#X obj 709 488 tabread4~ channel1;
#X obj 1248 304 hsl 200 15 0 1 0 0 empty empty empty -2 -8 0 10 -262144
-1 -1 12374 1;
#X obj 572 198 s presistor;
#X obj 1281 389 r presistor;
#X obj 1309 455 >;
#X floatatom 1281 420 5 0 0 0 - - -;
#X floatatom 1341 423 5 0 0 0 - - -;
#X text 1381 423 Tolerance;
#X floatatom 1309 486 5 0 0 0 - - -;
#X obj 1309 547 metro 50;
#X floatatom 1309 615 5 0 0 0 - - -;
#X floatatom 1349 615 5 0 0 0 - - -;
#X obj 1309 516 sel 1 0;
#X msg 1368 548 0;
#X obj 730 301 s pspeed;
#X floatatom 1229 552 5 0 0 0 - - -;
#X obj 1192 494 r pspeed;
#X obj 1199 573 /;
#X floatatom 1165 551 5 0 0 0 - - -;
#X floatatom 1199 602 5 0 0 0 - - -;
#X msg 1165 529 1;
#X obj 1200 653 int;
#X floatatom 1200 685 5 0 0 0 - - -;
#X floatatom 1253 496 5 0 0 0 - - -;
#X obj 1286 467 bng 15 250 50 0 empty empty empty 17 7 0 10 -262144
-1 -1;
#X msg 1395 521 50;
#X obj 1308 580 random 2;
#X msg 1399 631 2;
#X obj 1336 649 /;
#X floatatom 1335 678 5 0 0 0 - - -;
#X obj 1292 730 /;
#X floatatom 1291 760 5 0 0 0 - - -;
#X obj 1291 793 s granuleMove;
#X obj 1379 464 -;
#X obj 1247 441 bng 15 250 50 0 empty empty empty 17 7 0 10 -262144
-1 -1;
#X msg 1420 443 1;
#X floatatom 1381 492 5 0 0 0 - - -;
#X obj 1262 532 -;
#X floatatom 1262 574 5 0 0 0 - - -;
#X obj 1200 717 *;
#X floatatom 1242 683 5 0 0 0 - - -;
#X connect 0 0 2 0;
#X connect 1 0 2 0;
#X connect 2 0 9 0;
#X connect 2 0 10 0;
#X connect 2 0 11 0;
#X connect 2 0 12 0;
#X connect 2 0 13 0;
#X connect 2 0 14 0;
#X connect 2 0 15 0;
#X connect 2 0 16 0;
#X connect 2 0 17 0;
#X connect 2 0 44 0;
#X connect 2 0 45 0;
#X connect 2 0 46 0;
#X connect 2 0 47 0;
#X connect 2 0 52 0;
#X connect 2 0 54 0;
#X connect 5 0 21 0;
#X connect 6 0 20 0;
#X connect 7 0 19 0;
#X connect 8 0 18 0;
#X connect 9 0 3 0;
#X connect 10 0 4 0;
#X connect 11 0 23 0;
#X connect 12 0 24 0;
#X connect 13 0 25 0;
#X connect 14 0 26 0;
#X connect 15 0 27 0;
#X connect 16 0 28 0;
#X connect 17 0 29 0;
#X connect 22 0 111 0;
#X connect 44 0 8 0;
#X connect 45 0 7 0;
#X connect 46 0 6 0;
#X connect 47 0 5 0;
#X connect 52 0 53 0;
#X connect 54 0 22 0;
#X connect 56 0 60 0;
#X connect 56 0 108 0;
#X connect 57 0 56 0;
#X connect 58 0 57 0;
#X connect 58 0 106 0;
#X connect 59 0 58 0;
#X connect 60 0 63 0;
#X connect 60 2 61 0;
#X connect 60 2 68 0;
#X connect 61 0 66 0;
#X connect 63 0 66 1;
#X connect 66 0 65 0;
#X connect 68 0 61 0;
#X connect 68 0 107 0;
#X connect 69 0 99 0;
#X connect 71 0 72 0;
#X connect 71 0 73 0;
#X connect 72 0 96 0;
#X connect 73 0 74 0;
#X connect 73 0 75 0;
#X connect 74 0 90 0;
#X connect 74 0 123 0;
#X connect 75 0 76 0;
#X connect 76 0 80 0;
#X connect 76 0 109 0;
#X connect 77 0 78 1;
#X connect 78 0 79 0;
#X connect 78 0 79 1;
#X connect 80 0 83 0;
#X connect 81 0 80 0;
#X connect 81 0 72 0;
#X connect 81 0 69 0;
#X connect 81 0 88 0;
#X connect 82 0 81 0;
#X connect 83 0 84 0;
#X connect 84 0 85 0;
#X connect 85 0 110 0;
#X connect 86 0 87 0;
#X connect 87 0 75 0;
#X connect 88 0 90 0;
#X connect 89 0 91 0;
#X connect 90 0 89 0;
#X connect 91 0 93 0;
#X connect 92 0 91 1;
#X connect 93 0 86 0;
#X connect 94 0 90 1;
#X connect 95 0 84 1;
#X connect 97 0 76 1;
#X connect 98 0 92 0;
#X connect 100 0 78 0;
#X connect 101 0 100 1;
#X connect 102 0 101 0;
#X connect 103 0 101 1;
#X connect 104 0 102 0;
#X connect 105 0 104 0;
#X connect 106 0 71 0;
#X connect 107 0 69 0;
#X connect 109 0 100 0;
#X connect 112 0 114 0;
#X connect 113 0 117 0;
#X connect 114 0 113 0;
#X connect 114 0 132 0;
#X connect 114 0 143 0;
#X connect 115 0 113 1;
#X connect 115 0 142 0;
#X connect 117 0 121 0;
#X connect 118 0 135 0;
#X connect 119 0 137 0;
#X connect 120 0 137 1;
#X connect 121 0 118 0;
#X connect 121 0 133 0;
#X connect 121 0 136 0;
#X connect 121 1 122 0;
#X connect 122 0 120 0;
#X connect 122 0 118 0;
#X connect 122 0 119 0;
#X connect 122 0 135 0;
#X connect 124 0 126 1;
#X connect 125 0 124 0;
#X connect 125 0 129 0;
#X connect 126 0 128 0;
#X connect 127 0 126 0;
#X connect 128 0 130 0;
#X connect 129 0 127 0;
#X connect 130 0 131 0;
#X connect 131 0 148 0;
#X connect 132 0 146 0;
#X connect 133 0 132 0;
#X connect 134 0 118 0;
#X connect 135 0 119 0;
#X connect 136 0 120 0;
#X connect 137 0 138 0;
#X connect 138 0 139 0;
#X connect 139 0 140 0;
#X connect 140 0 141 0;
#X connect 142 0 145 0;
#X connect 143 0 115 0;
#X connect 143 0 144 0;
#X connect 144 0 142 1;
#X connect 145 0 146 1;
#X connect 146 0 147 0;
#X connect 147 0 135 1;
#X connect 148 0 139 1;
#X connect 149 0 148 1;
