#N canvas 48 243 703 712 10;
#X obj 213 642 dac~;
#X obj 137 533 r left;
#X obj 325 533 r right;
#X obj 62 466 osc~;
#X obj 102 466 osc~;
#X obj 62 533 *~ 0.2;
#X obj 262 533 *~ 0.2;
#X obj 293 559 *~ 1;
#X obj 117 559 *~ 1;
#X msg 36 17 devices;
#X obj 62 435 * 10;
#X obj 102 435 * 20;
#X msg 95 17 open 2;
#X obj 36 48 comport 2 9600;
#X floatatom 45 313 5 0 0 0 - - -;
#X floatatom 115 313 5 0 0 0 - - -;
#X obj 572 110 smooth;
#X obj 480 110 smooth;
#X obj 384 110 smooth;
#X obj 294 110 smooth;
#X obj 210 110 smooth;
#X obj 45 253 split 0 1;
#X obj 115 253 split 2 3;
#X obj 180 253 split 4 5;
#X obj 252 253 split 6 7;
#X obj 315 253 split 8 9;
#X obj 380 253 split 10 11;
#X obj 456 253 split 12 13;
#X obj 533 253 split 14 15;
#X obj 613 253 split 16 17;
#X floatatom 210 141 5 0 0 0 - - -;
#X floatatom 294 141 5 0 0 0 - - -;
#X floatatom 384 141 5 0 0 0 - - -;
#X floatatom 480 141 5 0 0 0 - - -;
#X floatatom 572 141 5 0 0 0 - - -;
#X floatatom 180 313 5 0 0 0 - - -;
#X floatatom 252 313 5 0 0 0 - - -;
#X floatatom 315 313 5 0 0 0 - - -;
#X floatatom 380 313 5 0 0 0 - - -;
#X floatatom 456 313 5 0 0 0 - - -;
#X floatatom 533 313 5 0 0 0 - - -;
#X floatatom 613 313 5 0 0 0 - - -;
#X text 45 283 FSR1;
#X text 115 283 FSR2;
#X text 180 283 FSR3;
#X text 252 283 TILT;
#X text 315 283 PB1;
#X text 380 283 PB2;
#X text 456 283 PB3;
#X text 533 283 PB4;
#X text 613 283 PB5;
#X text 221 86 MOISTURE1;
#X text 304 86 MOISTURE2;
#X text 394 86 VIBRATION1;
#X text 489 86 VIBRATION2;
#X text 584 86 PHOTORESISTOR;
#X obj 210 66 split 21 60;
#X obj 294 66 split 61 100;
#X obj 384 66 split 101 140;
#X obj 480 66 split 141 180;
#X obj 572 66 split 181 220;
#X connect 1 0 8 1;
#X connect 2 0 7 1;
#X connect 3 0 5 0;
#X connect 4 0 6 0;
#X connect 5 0 8 0;
#X connect 6 0 7 0;
#X connect 7 0 0 1;
#X connect 8 0 0 0;
#X connect 9 0 13 0;
#X connect 10 0 3 0;
#X connect 11 0 4 0;
#X connect 12 0 13 0;
#X connect 13 0 21 0;
#X connect 13 0 22 0;
#X connect 13 0 23 0;
#X connect 13 0 24 0;
#X connect 13 0 25 0;
#X connect 13 0 26 0;
#X connect 13 0 27 0;
#X connect 13 0 28 0;
#X connect 13 0 29 0;
#X connect 13 0 56 0;
#X connect 13 0 57 0;
#X connect 13 0 58 0;
#X connect 13 0 59 0;
#X connect 13 0 60 0;
#X connect 14 0 10 0;
#X connect 15 0 11 0;
#X connect 16 0 34 0;
#X connect 17 0 33 0;
#X connect 18 0 32 0;
#X connect 19 0 31 0;
#X connect 20 0 30 0;
#X connect 21 0 14 0;
#X connect 22 0 15 0;
#X connect 23 0 35 0;
#X connect 24 0 36 0;
#X connect 25 0 37 0;
#X connect 26 0 38 0;
#X connect 27 0 39 0;
#X connect 28 0 40 0;
#X connect 29 0 41 0;
#X connect 56 0 20 0;
#X connect 57 0 19 0;
#X connect 58 0 18 0;
#X connect 59 0 17 0;
#X connect 60 0 16 0;
