#N canvas 144 23 827 880 10;
#X obj -168 29 random 8;
#X floatatom -209 61 5 0 0 0 - - -;
#X obj -130 62 sel 0 1 2 3 4 5 6 7;
#X msg -200 124 open _1.wav \, 1;
#X msg -198 147 open _2.wav \, 1;
#X msg -198 169 open _3.wav \, 1;
#X msg -200 192 open _4.wav \, 1;
#X msg -201 216 open _5.wav \, 1;
#X msg -201 244 open _6.wav \, 1;
#X msg -202 270 open _7.wav \, 1;
#X obj -174 3 bng 15 250 50 0 empty empty empty 17 7 0 10 -262144 -1
-1;
#X obj -38 100 readsf~;
#X obj -33 183 readsf~;
#X obj -33 204 readsf~;
#X obj -32 227 readsf~;
#X obj -31 252 readsf~;
#X obj -31 279 readsf~;
#X obj -32 305 readsf~;
#X obj -30 329 readsf~;
#X obj -105 330 *~ 0.5;
#N canvas 0 22 450 278 (subpatch) 0;
#X array channelR 154350 float 2;
#X coords 0 1 154350 -1 200 140 1 0 0;
#X restore 268 176 graph;
#N canvas 0 22 450 278 (subpatch) 0;
#X array channelL 154350 float 2;
#X coords 0 1 154350 -1 200 140 1;
#X restore 268 7 graph;
#X obj -194 452 soundfiler;
#X floatatom -182 475 12 0 0 0 - - -;
#X obj -196 523 expr 44100 / $f1;
#X obj -182 499 s sampleSize;
#X floatatom -179 550 12 0 0 0 - - -;
#X obj -195 576 phasor~;
#X obj -197 627 *~;
#X obj -173 599 r sampleSize;
#X obj -195 806 tabread4~ channelL;
#X obj -164 836 tabread4~ channelR;
#X obj -156 901 *~;
#X obj -112 903 *~;
#X obj -154 936 dac~ 1 2;
#X obj -21 820 vsl 15 128 0 127 0 0 empty empty empty 0 -9 0 10 -262144
-1 -1 2000 1;
#X obj -107 628 snapshot~;
#X obj -64 588 metro 50;
#X obj -60 562 tgl 15 0 empty empty empty 17 7 0 10 -262144 -1 -1 0
1;
#X floatatom -107 656 12 0 0 0 - - -;
#X obj -106 686 /;
#X obj -66 683 r sampleSize;
#X floatatom -104 716 5 0 0 0 - - -;
#X msg -224 91 open _0.aiff \, 1;
#X msg -193 422 read -resize _0.aiff channelL channelR;
#X msg -65 463 0;
#X obj -113 751 expr $f1 \; if($f1 == 0.967 \, 1 \, 0);
#X connect 0 0 1 0;
#X connect 0 0 2 0;
#X connect 2 0 43 0;
#X connect 2 1 3 0;
#X connect 2 2 4 0;
#X connect 2 3 5 0;
#X connect 2 4 6 0;
#X connect 2 5 7 0;
#X connect 2 6 8 0;
#X connect 2 7 9 0;
#X connect 3 0 12 0;
#X connect 4 0 13 0;
#X connect 5 0 14 0;
#X connect 6 0 15 0;
#X connect 7 0 16 0;
#X connect 8 0 17 0;
#X connect 9 0 18 0;
#X connect 10 0 0 0;
#X connect 11 0 19 0;
#X connect 12 0 19 0;
#X connect 13 0 19 0;
#X connect 14 0 19 0;
#X connect 15 0 19 0;
#X connect 16 0 19 0;
#X connect 17 0 19 0;
#X connect 18 0 19 0;
#X connect 22 0 23 0;
#X connect 22 0 24 0;
#X connect 23 0 25 0;
#X connect 24 0 26 0;
#X connect 24 0 27 0;
#X connect 27 0 28 0;
#X connect 28 0 30 0;
#X connect 28 0 31 0;
#X connect 28 0 36 0;
#X connect 29 0 28 1;
#X connect 30 0 32 0;
#X connect 31 0 33 0;
#X connect 32 0 34 0;
#X connect 33 0 34 1;
#X connect 35 0 32 1;
#X connect 35 0 33 1;
#X connect 36 0 39 0;
#X connect 37 0 36 0;
#X connect 38 0 37 0;
#X connect 39 0 40 0;
#X connect 40 0 42 0;
#X connect 41 0 40 1;
#X connect 42 0 46 0;
#X connect 43 0 11 0;
#X connect 43 0 44 0;
#X connect 44 0 22 0;
#X connect 46 0 45 0;
